ffmpeg started on 2020-07-19 at 21:57:46
Report written to "C:/Users/Administrator.USER-20200623OM/Desktop/N_m3u8DL-CLI_v2.6.3_with_ffmpeg_and_SimpleG/Logs/2020-07-19_21-54-18_ffreport.log"
Command line:
ffmpeg -loglevel warning -i "concat:0000.ts|0001.ts|0002.ts|0003.ts|0004.ts|0005.ts|0006.ts|0007.ts|0008.ts|0009.ts|0010.ts|0011.ts|0012.ts|0013.ts|0014.ts|0015.ts|0016.ts|0017.ts|0018.ts|0019.ts|0020.ts|0021.ts|0022.ts|0023.ts|0024.ts|0025.ts|0026.ts|0027.ts|0028.ts|0029.ts|0030.ts|0031.ts|0032.ts|0033.ts|0034.ts|0035.ts|0036.ts|0037.ts|0038.ts|0039.ts|0040.ts|0041.ts|0042.ts|0043.ts|0044.ts|0045.ts|0046.ts|0047.ts|0048.ts|0049.ts|0050.ts|0051.ts|0052.ts|0053.ts|0054.ts|0055.ts|0056.ts|0057.ts|0058.ts|0059.ts|0060.ts|0061.ts|0062.ts|0063.ts|0064.ts|0065.ts|0066.ts|0067.ts|0068.ts|0069.ts|0070.ts|0071.ts|0072.ts|0073.ts|0074.ts|0075.ts|0076.ts|0077.ts|0078.ts|0079.ts|0080.ts|0081.ts|0082.ts|0083.ts|0084.ts|0085.ts|0086.ts|0087.ts|0088.ts|0089.ts|0090.ts|0091.ts|0092.ts|0093.ts|0094.ts|0095.ts|0096.ts|0097.ts|0098.ts|0099.ts|0100.ts|0101.ts|0102.ts|0103.ts|0104.ts|0105.ts|0106.ts|0107.ts|0108.ts|0109.ts|0110.ts|0111.ts|0112.ts|0113.ts|0114.ts|0115.ts|0116.ts|0117.ts|0118.ts|0119.ts|0120.ts|0121.ts|0122.ts|0123.ts|0124.ts|0125.ts|0126.ts|0127.ts|0128.ts|0129.ts|0130.ts|0131.ts|0132.ts|0133.ts|0134.ts|0135.ts|0136.ts|0137.ts|0138.ts|0139.ts|0140.ts|0141.ts|0142.ts|0143.ts|0144.ts|0145.ts|0146.ts|0147.ts|0148.ts|0149.ts|0150.ts|0151.ts|0152.ts|0153.ts|0154.ts|0155.ts|0156.ts|0157.ts|0158.ts|0159.ts|0160.ts|0161.ts|0162.ts|0163.ts|0164.ts|0165.ts|0166.ts|0167.ts|0168.ts|0169.ts|0170.ts|0171.ts|0172.ts|0173.ts|0174.ts|0175.ts|0176.ts|0177.ts|0178.ts|0179.ts|0180.ts|0181.ts|0182.ts|0183.ts|0184.ts|0185.ts|0186.ts|0187.ts|0188.ts|0189.ts|0190.ts|0191.ts|0192.ts|0193.ts|0194.ts|0195.ts|0196.ts|0197.ts|0198.ts|0199.ts|0200.ts|0201.ts|0202.ts|0203.ts|0204.ts|0205.ts|0206.ts|0207.ts|0208.ts|0209.ts|0210.ts|0211.ts|0212.ts|0213.ts|0214.ts|0215.ts|0216.ts|0217.ts|0218.ts|0219.ts|0220.ts|0221.ts|0222.ts|0223.ts|0224.ts|0225.ts|0226.ts|0227.ts|0228.ts|0229.ts|0230.ts|0231.ts|0232.ts|0233.ts|0234.ts|0235.ts|0236.ts|0237.ts|0238.ts|0239.ts|0240.ts|0241.ts|0242.ts|0243.ts|0244.ts|0245.ts|0246.ts|0247.ts|0248.ts|0249.ts|0250.ts|0251.ts|0252.ts|0253.ts|0254.ts|0255.ts|0256.ts|0257.ts|0258.ts|0259.ts|0260.ts|0261.ts|0262.ts|0263.ts|0264.ts|0265.ts|0266.ts|0267.ts|0268.ts|0269.ts|0270.ts|0271.ts|0272.ts|0273.ts|0274.ts|0275.ts|0276.ts|0277.ts|0278.ts|0279.ts|0280.ts|0281.ts|0282.ts|0283.ts|0284.ts|0285.ts|0286.ts|0287.ts|0288.ts|0289.ts|0290.ts|0291.ts|0292.ts|0293.ts|0294.ts|0295.ts|0296.ts|0297.ts|0298.ts|0299.ts|0300.ts|0301.ts|0302.ts|0303.ts|0304.ts|0305.ts|0306.ts|0307.ts|0308.ts|0309.ts|0310.ts|0311.ts|0312.ts|0313.ts|0314.ts|0315.ts|0316.ts|0317.ts|0318.ts|0319.ts|0320.ts|0321.ts|0322.ts|0323.ts|0324.ts|0325.ts|0326.ts|0327.ts|0328.ts|0329.ts|0330.ts|0331.ts|0332.ts|0333.ts|0334.ts|0335.ts|0336.ts|0337.ts|0338.ts|0339.ts|0340.ts|0341.ts|0342.ts|0343.ts|0344.ts|0345.ts|0346.ts|0347.ts|0348.ts|0349.ts|0350.ts|0351.ts|0352.ts|0353.ts|0354.ts|0355.ts|0356.ts|0357.ts|0358.ts|0359.ts|0360.ts|0361.ts|0362.ts|0363.ts|0364.ts|0365.ts|0366.ts|0367.ts|0368.ts|0369.ts|0370.ts|0371.ts|0372.ts|0373.ts|0374.ts|0375.ts|0376.ts|0377.ts|0378.ts|0379.ts|0380.ts|0381.ts|0382.ts|0383.ts|0384.ts|0385.ts|0386.ts|0387.ts|0388.ts|0389.ts|0390.ts|0391.ts|0392.ts|0393.ts|0394.ts|0395.ts|0396.ts|0397.ts|0398.ts|0399.ts|0400.ts|0401.ts|0402.ts|0403.ts|0404.ts|0405.ts|0406.ts|0407.ts|0408.ts|0409.ts|0410.ts|0411.ts|0412.ts|0413.ts|0414.ts|0415.ts|0416.ts|0417.ts|0418.ts|0419.ts|0420.ts|0421.ts|0422.ts|0423.ts|0424.ts|0425.ts|0426.ts|0427.ts|0428.ts|0429.ts|0430.ts|0431.ts|0432.ts|0433.ts|0434.ts|0435.ts|0436.ts|0437.ts|0438.ts|0439.ts|0440.ts|0441.ts|0442.ts|0443.ts|0444.ts|0445.ts|0446.ts|0447.ts|0448.ts|0449.ts|0450.ts|0451.ts|0452.ts|0453.ts|0454.ts|0455.ts|0456.ts|0457.ts|0458.ts|0459.ts|0460.ts|0461.ts|0462.ts|0463.ts|0464.ts|0465.ts|0466.ts|0467.ts|0468.ts|0469.ts|0470.ts|0471.ts|0472.ts|0473.ts|0474.ts|0475.ts|0476.ts|0477.ts|0478.ts|0479.ts|0480.ts|0481.ts|0482.ts|0483.ts|0484.ts|0485.ts|0486.ts|0487.ts|0488.ts|0489.ts|0490.ts|0491.ts|0492.ts|0493.ts|0494.ts|0495.ts|0496.ts|0497.ts|0498.ts|0499.ts|0500.ts|0501.ts|0502.ts|0503.ts|0504.ts|0505.ts|0506.ts|0507.ts|0508.ts|0509.ts|0510.ts|0511.ts|0512.ts|0513.ts|0514.ts|0515.ts|0516.ts|0517.ts|0518.ts|0519.ts|0520.ts|0521.ts|0522.ts|0523.ts|0524.ts|0525.ts|0526.ts|0527.ts|0528.ts|0529.ts|0530.ts|0531.ts|0532.ts|0533.ts|0534.ts|0535.ts|0536.ts|0537.ts|0538.ts|0539.ts|0540.ts|0541.ts|0542.ts|0543.ts|0544.ts|0545.ts|0546.ts|0547.ts|0548.ts|0549.ts|0550.ts|0551.ts|0552.ts|0553.ts|0554.ts|0555.ts|0556.ts|0557.ts|0558.ts|0559.ts|0560.ts|0561.ts|0562.ts|0563.ts|0564.ts|0565.ts|0566.ts|0567.ts|0568.ts|0569.ts|0570.ts|0571.ts|0572.ts|0573.ts|0574.ts|0575.ts|0576.ts|0577.ts|0578.ts|0579.ts|0580.ts|0581.ts|0582.ts|0583.ts|0584.ts|0585.ts|0586.ts|0587.ts|0588.ts|0589.ts|0590.ts|0591.ts|0592.ts|0593.ts|0594.ts|0595.ts|0596.ts|0597.ts|0598.ts|0599.ts|0600.ts|0601.ts|0602.ts|0603.ts|0604.ts|0605.ts|0606.ts|0607.ts|0608.ts|0609.ts|0610.ts|0611.ts|0612.ts|0613.ts|0614.ts|0615.ts|0616.ts|0617.ts|0618.ts|0619.ts|0620.ts|0621.ts|0622.ts|0623.ts|0624.ts|0625.ts|0626.ts|0627.ts|0628.ts|0629.ts|0630.ts|0631.ts|0632.ts|0633.ts|0634.ts|0635.ts|0636.ts|0637.ts|0638.ts|0639.ts|0640.ts|0641.ts|0642.ts|0643.ts|0644.ts|0645.ts|0646.ts|0647.ts|0648.ts|0649.ts|0650.ts|0651.ts|0652.ts|0653.ts|0654.ts|0655.ts|0656.ts|0657.ts|0658.ts|0659.ts|0660.ts|0661.ts|0662.ts|0663.ts|0664.ts|0665.ts|0666.ts|0667.ts|0668.ts|0669.ts|0670.ts|0671.ts|0672.ts|0673.ts|0674.ts|0675.ts|0676.ts|0677.ts|0678.ts|0679.ts|0680.ts|0681.ts|0682.ts|0683.ts|0684.ts|0685.ts|0686.ts|0687.ts|0688.ts|0689.ts|0690.ts|0691.ts|0692.ts|0693.ts|0694.ts|0695.ts|0696.ts|0697.ts|0698.ts|0699.ts|0700.ts|0701.ts|0702.ts|0703.ts|0704.ts|0705.ts|0706.ts|0707.ts|0708.ts|0709.ts|0710.ts|0711.ts|0712.ts|0713.ts|0714.ts|0715.ts|0716.ts|0717.ts|0718.ts|0719.ts|0720.ts|0721.ts|0722.ts|0723.ts|0724.ts|0725.ts|0726.ts|0727.ts|0728.ts|0729.ts|0730.ts|0731.ts|0732.ts|0733.ts|0734.ts|0735.ts|0736.ts|0737.ts|0738.ts|0739.ts|0740.ts|0741.ts|0742.ts|0743.ts|0744.ts|0745.ts|0746.ts|0747.ts|0748.ts|0749.ts|0750.ts|0751.ts|0752.ts|0753.ts|0754.ts|0755.ts|0756.ts|0757.ts|0758.ts|0759.ts|0760.ts|0761.ts|0762.ts|0763.ts|0764.ts|0765.ts|0766.ts|0767.ts|0768.ts|0769.ts|0770.ts|0771.ts|0772.ts|0773.ts|0774.ts|0775.ts|0776.ts|0777.ts|0778.ts|0779.ts|0780.ts|0781.ts|0782.ts|0783.ts|0784.ts|0785.ts|0786.ts|0787.ts|0788.ts|0789.ts|0790.ts|0791.ts|0792.ts|0793.ts|0794.ts|0795.ts|0796.ts|0797.ts|0798.ts|0799.ts|0800.ts|0801.ts|0802.ts|0803.ts|0804.ts|0805.ts|0806.ts|0807.ts|0808.ts|0809.ts|0810.ts|0811.ts|0812.ts|0813.ts|0814.ts|0815.ts|0816.ts|0817.ts|0818.ts|0819.ts|0820.ts|0821.ts|0822.ts|0823.ts|0824.ts|0825.ts|0826.ts|0827.ts|0828.ts|0829.ts|0830.ts|0831.ts|0832.ts|0833.ts|0834.ts|0835.ts|0836.ts|0837.ts|0838.ts|0839.ts|0840.ts|0841.ts|0842.ts|0843.ts|0844.ts|0845.ts|0846.ts|0847.ts|0848.ts|0849.ts|0850.ts|0851.ts|0852.ts|0853.ts|0854.ts|0855.ts|0856.ts|0857.ts|0858.ts|0859.ts|0860.ts|0861.ts|0862.ts|0863.ts|0864.ts|0865.ts|0866.ts|0867.ts|0868.ts|0869.ts|0870.ts|0871.ts|0872.ts|0873.ts|0874.ts|0875.ts|0876.ts|0877.ts|0878.ts|0879.ts|0880.ts|0881.ts|0882.ts|0883.ts|0884.ts|0885.ts|0886.ts|0887.ts|0888.ts|0889.ts|0890.ts|0891.ts|0892.ts|0893.ts|0894.ts|0895.ts|0896.ts|0897.ts|0898.ts|0899.ts|0900.ts|0901.ts|0902.ts|0903.ts|0904.ts|0905.ts|0906.ts|0907.ts|0908.ts|0909.ts|0910.ts|0911.ts|0912.ts|0913.ts|0914.ts|0915.ts|0916.ts|0917.ts|0918.ts|0919.ts|0920.ts|0921.ts|0922.ts|0923.ts|0924.ts|0925.ts|0926.ts|0927.ts|0928.ts|0929.ts|0930.ts|0931.ts|0932.ts|0933.ts|0934.ts|0935.ts|0936.ts|0937.ts|0938.ts|0939.ts|0940.ts|0941.ts|0942.ts|0943.ts|0944.ts|0945.ts|0946.ts|0947.ts|0948.ts|0949.ts|0950.ts|0951.ts|0952.ts|0953.ts|0954.ts|0955.ts|0956.ts|0957.ts|0958.ts|0959.ts|0960.ts|0961.ts|0962.ts|0963.ts|0964.ts|0965.ts|0966.ts|0967.ts|0968.ts|0969.ts|0970.ts|0971.ts|0972.ts|0973.ts|0974.ts|0975.ts|0976.ts|0977.ts|0978.ts|0979.ts|0980.ts|0981.ts|0982.ts|0983.ts|0984.ts|0985.ts|0986.ts|0987.ts|0988.ts|0989.ts|0990.ts|0991.ts|0992.ts|0993.ts|0994.ts|0995.ts|0996.ts|0997.ts|0998.ts|0999.ts|1000.ts|1001.ts|1002.ts|1003.ts|1004.ts|1005.ts|1006.ts|1007.ts|1008.ts|1009.ts|1010.ts|1011.ts|1012.ts|1013.ts|1014.ts|1015.ts|1016.ts|1017.ts|1018.ts|1019.ts|1020.ts|1021.ts|1022.ts|1023.ts|1024.ts|1025.ts|1026.ts|1027.ts|1028.ts|1029.ts|1030.ts|1031.ts|1032.ts|1033.ts|1034.ts|1035.ts|1036.ts|1037.ts|1038.ts|1039.ts|1040.ts|1041.ts|1042.ts|1043.ts|1044.ts|1045.ts|1046.ts|1047.ts|1048.ts|1049.ts|1050.ts|1051.ts|1052.ts|1053.ts|1054.ts|1055.ts|1056.ts|1057.ts|1058.ts|1059.ts|1060.ts|1061.ts|1062.ts|1063.ts|1064.ts|1065.ts|1066.ts|1067.ts|1068.ts|1069.ts|1070.ts|1071.ts|1072.ts|1073.ts|1074.ts|1075.ts|1076.ts|1077.ts|1078.ts|1079.ts|1080.ts|1081.ts|1082.ts|1083.ts|1084.ts|1085.ts|1086.ts|1087.ts|1088.ts|1089.ts|1090.ts|1091.ts|1092.ts|1093.ts|1094.ts|1095.ts|1096.ts|1097.ts|1098.ts|1099.ts|1100.ts|1101.ts|1102.ts|1103.ts|1104.ts|1105.ts|1106.ts|1107.ts|1108.ts|1109.ts|1110.ts|1111.ts|1112.ts|1113.ts|1114.ts|1115.ts|1116.ts|1117.ts|1118.ts|1119.ts|1120.ts|1121.ts|1122.ts|1123.ts|1124.ts|1125.ts|1126.ts|1127.ts|1128.ts|1129.ts|1130.ts|1131.ts|1132.ts|1133.ts|1134.ts|1135.ts|1136.ts|1137.ts|1138.ts|1139.ts|1140.ts|1141.ts|1142.ts|1143.ts|1144.ts|1145.ts|1146.ts|1147.ts|1148.ts|1149.ts|1150.ts|1151.ts|1152.ts|1153.ts|1154.ts|1155.ts|1156.ts|1157.ts|1158.ts|1159.ts|1160.ts|1161.ts|1162.ts|1163.ts|1164.ts|1165.ts|1166.ts|1167.ts|1168.ts|1169.ts|1170.ts|1171.ts|1172.ts|1173.ts|1174.ts|1175.ts|1176.ts|1177.ts|1178.ts|1179.ts|1180.ts|1181.ts|1182.ts|1183.ts|1184.ts|1185.ts|1186.ts|" -map "0:v?" -map "0:a?" -map "0:s?" -metadata "date=2020-07-19T21:57:46.0246896+08:00" -metadata "encoding_tool=" -metadata "title=" -metadata "copyright=" -metadata "comment=" -metadata:s:a:0 "handler_name=" -metadata:s:a:0 "handler=" -c copy -y -bsf:a aac_adtstoasc "E:\\\xd6\xe9\xb7\xe5\xbf\xce\\\xb3\xb9\xb5\xd7\xb8\xe3\xb6\xa8Vue3.0\xba\xcb\xd0\xc4\xd4\xb4\xc2\xeb\\\xa1\xbe\xb5\xda\xc8\xfd\xcc\xec\xa1\xbf\xb3\xb9\xb5\xd7\xb8\xe3\xb6\xa8Vue3.0\xba\xcb\xd0\xc4\xd4\xb4\xc2\xeb\\\xa1\xbe\xb5\xda\xc8\xfd\xcc\xec\xa1\xbf\xb3\xb9\xb5\xd7\xb8\xe3\xb6\xa8Vue3.0\xba\xcb\xd0\xc4\xd4\xb4\xc2\xeb(1).mp4"
ffmpeg version N-94813-g85386c36e3-ffmpeg-for-N_m3u8DL-CLI Copyright (c) 2000-2019 the FFmpeg developers
  built with gcc 8.2.0 (GCC)
  libavutil      56. 35.100 / 56. 35.100
  libavcodec     58. 56.101 / 58. 56.101
  libavformat    58. 32.104 / 58. 32.104
  libavfilter     7. 58.102 /  7. 58.102
  libavresample   4.  0.  0 /  4.  0.  0
  libswresample   3.  6.100 /  3.  6.100
Input #0, mpegts, from 'concat:0000.ts|0001.ts|0002.ts|0003.ts|0004.ts|0005.ts|0006.ts|0007.ts|0008.ts|0009.ts|0010.ts|0011.ts|0012.ts|0013.ts|0014.ts|0015.ts|0016.ts|0017.ts|0018.ts|0019.ts|0020.ts|0021.ts|0022.ts|0023.ts|0024.ts|0025.ts|0026.ts|0027.ts|0028.ts|0029.ts|0030.ts|0031.ts|0032.ts|0033.ts|0034.ts|0035.ts|0036.ts|0037.ts|0038.ts|0039.ts|0040.ts|0041.ts|0042.ts|0043.ts|0044.ts|0045.ts|0046.ts|0047.ts|0048.ts|0049.ts|0050.ts|0051.ts|0052.ts|0053.ts|0054.ts|0055.ts|0056.ts|0057.ts|0058.ts|0059.ts|0060.ts|0061.ts|0062.ts|0063.ts|0064.ts|0065.ts|0066.ts|0067.ts|0068.ts|0069.ts|0070.ts|0071.ts|0072.ts|0073.ts|0074.ts|0075.ts|0076.ts|0077.ts|0078.ts|0079.ts|0080.ts|0081.ts|0082.ts|0083.ts|0084.ts|0085.ts|0086.ts|0087.ts|0088.ts|0089.ts|0090.ts|0091.ts|0092.ts|0093.ts|0094.ts|0095.ts|0096.ts|0097.ts|0098.ts|0099.ts|0100.ts|0101.ts|0102.ts|0103.ts|0104.ts|0105.ts|0106.ts|0107.ts|0108.ts|0109.ts|0110.ts|0111.ts|0112.ts|0113.ts|0114.ts|0115.ts|0116.ts|0117.ts|0118.ts|0119.ts|0120.ts|0121.ts|0122.ts|0123.ts|  Duration: 03:11:33.58, start: 1.533333, bitrate: 833 kb/s
  Program 1 
    Metadata:
      service_name    : Service01
      service_provider: FFmpeg
    Stream #0:0[0x100]: Video: h264 ([27][0][0][0] / 0x001B), yuv420p(tv, progressive), 1348x720, 15 fps, 15 tbr, 90k tbn, 30 tbc
    Stream #0:1[0x101](und): Audio: aac ([15][0][0][0] / 0x000F), 44100 Hz, stereo, fltp, 44 kb/s
Output #0, mp4, to 'E:\珠峰课\彻底搞定Vue3.0核心源码\【第三天】彻底搞定Vue3.0核心源码\【第三天】彻底搞定Vue3.0核心源码(1).mp4':
  Metadata:
    date            : 2020-07-19T21:57:46.0246896+08:00
    encoder         : Lavf58.32.104
    Stream #0:0: Video: h264 (avc1 / 0x31637661), yuv420p(tv, progressive), 1348x720, q=2-31, 15 fps, 15 tbr, 90k tbn, 90k tbc
    Stream #0:1(und): Audio: aac (mp4a / 0x6134706D), 44100 Hz, stereo, fltp, 44 kb/s
Stream mapping:
  Stream #0:0 -> #0:0 (copy)
  Stream #0:1 -> #0:1 (copy)
Press [q] to stop, [?] for help
[mp4 @ 03c46140] Non-monotonous DTS in output stream 0:1; previous: 649712, current: 648266; changing to 649713. This may result in incorrect timestamps in the output file.
[mp4 @ 03c46140] Non-monotonous DTS in output stream 0:1; previous: 649713, current: 649290; changing to 649714. This may result in incorrect timestamps in the output file.
[mp4 @ 03c46140] Non-monotonous DTS in output stream 0:1; previous: 26479362, current: 26477512; changing to 26479363. This may result in incorrect timestamps in the output file.
[mp4 @ 03c46140] Non-monotonous DTS in output stream 0:1; previous: 26479363, current: 26478536; changing to 26479364. This may result in incorrect timestamps in the output file.
[mp4 @ 03c46140] Non-monotonous DTS in output stream 0:1; previous: 26495944, current: 26495042; changing to 26495945. This may result in incorrect timestamps in the output file.
frame= 9265 fps=0.0 q=-1.0 size=   50688kB time=00:10:17.65 bitrate= 672.3kbits/s speed=1.24e+03x    [mp4 @ 03c46140] Non-monotonous DTS in output stream 0:1; previous: 39710830, current: 39708536; changing to 39710831. This may result in incorrect timestamps in the output file.
[mp4 @ 03c46140] Non-monotonous DTS in output stream 0:1; previous: 39710831, current: 39709560; changing to 39710832. This may result in incorrect timestamps in the output file.
[mp4 @ 03c46140] Non-monotonous DTS in output stream 0:1; previous: 39710832, current: 39710583; changing to 39710833. This may result in incorrect timestamps in the output file.
[mp4 @ 03c46140] Non-monotonous DTS in output stream 0:1; previous: 39726968, current: 39725875; changing to 39726969. This may result in incorrect timestamps in the output file.
[mp4 @ 03c46140] Non-monotonous DTS in output stream 0:1; previous: 39726969, current: 39726899; changing to 39726970. This may result in incorrect timestamps in the output file.
frame=16812 fps=16811 q=-1.0 size=   96256kB time=00:18:40.78 bitrate= 703.5kbits/s speed=1.12e+03x    [mp4 @ 03c46140] Non-monotonous DTS in output stream 0:1; previous: 52938910, current: 52938536; changing to 52938911. This may result in incorrect timestamps in the output file.
[mp4 @ 03c46140] Non-monotonous DTS in output stream 0:1; previous: 52956968, current: 52955595; changing to 52956969. This may result in incorrect timestamps in the output file.
[mp4 @ 03c46140] Non-monotonous DTS in output stream 0:1; previous: 52956969, current: 52956619; changing to 52956970. This may result in incorrect timestamps in the output file.
[mp4 @ 03c46140] Non-monotonous DTS in output stream 0:1; previous: 55050230, current: 55049207; changing to 55050231. This may result in incorrect timestamps in the output file.
[mp4 @ 03c46140] Non-monotonous DTS in output stream 0:1; previous: 55069687, current: 55067480; changing to 55069688. This may result in incorrect timestamps in the output file.
[mp4 @ 03c46140] Non-monotonous DTS in output stream 0:1; previous: 55069688, current: 55068504; changing to 55069689. This may result in incorrect timestamps in the output file.
[mp4 @ 03c46140] Non-monotonous DTS in output stream 0:1; previous: 55069689, current: 55069528; changing to 55069690. This may result in incorrect timestamps in the output file.
frame=22492 fps=14994 q=-1.0 size=  149248kB time=00:24:59.45 bitrate= 815.4kbits/s speed=1e+03x    [mp4 @ 03c46140] Non-monotonous DTS in output stream 0:1; previous: 66169291, current: 66167512; changing to 66169292. This may result in incorrect timestamps in the output file.
[mp4 @ 03c46140] Non-monotonous DTS in output stream 0:1; previous: 66169292, current: 66168536; changing to 66169293. This may result in incorrect timestamps in the output file.
[mp4 @ 03c46140] Non-monotonous DTS in output stream 0:1; previous: 66184920, current: 66183710; changing to 66184921. This may result in incorrect timestamps in the output file.
[mp4 @ 03c46140] Non-monotonous DTS in output stream 0:1; previous: 66184921, current: 66184734; changing to 66184922. This may result in incorrect timestamps in the output file.
[mp4 @ 03c46140] Non-monotonous DTS in output stream 0:1; previous: 79401747, current: 79400584; changing to 79401748. This may result in incorrect timestamps in the output file.
[mp4 @ 03c46140] Non-monotonous DTS in output stream 0:1; previous: 79401748, current: 79401608; changing to 79401749. This may result in incorrect timestamps in the output file.
[mp4 @ 03c46140] Non-monotonous DTS in output stream 0:1; previous: 79420040, current: 79418947; changing to 79420041. This may result in incorrect timestamps in the output file.
[mp4 @ 03c46140] Non-monotonous DTS in output stream 0:1; previous: 79420041, current: 79419971; changing to 79420042. This may result in incorrect timestamps in the output file.
frame=30869 fps=15434 q=-1.0 size=  198912kB time=00:34:17.92 bitrate= 791.8kbits/s speed=1.03e+03x    [mp4 @ 03c46140] Non-monotonous DTS in output stream 0:1; previous: 92630243, current: 92628536; changing to 92630244. This may result in incorrect timestamps in the output file.
[mp4 @ 03c46140] Non-monotonous DTS in output stream 0:1; previous: 92630244, current: 92629560; changing to 92630245. This may result in incorrect timestamps in the output file.
[mp4 @ 03c46140] Non-monotonous DTS in output stream 0:1; previous: 92646968, current: 92645993; changing to 92646969. This may result in incorrect timestamps in the output file.
[mp4 @ 03c46140] Non-monotonous DTS in output stream 0:1; previous: 105861312, current: 105859560; changing to 105861313. This may result in incorrect timestamps in the output file.
[mp4 @ 03c46140] Non-monotonous DTS in output stream 0:1; previous: 105861313, current: 105860584; changing to 105861314. This may result in incorrect timestamps in the output file.
[mp4 @ 03c46140] Non-monotonous DTS in output stream 0:1; previous: 105877992, current: 105877325; changing to 105877993. This may result in incorrect timestamps in the output file.
[mp4 @ 03c46140] Non-monotonous DTS in output stream 0:1; previous: 110357830, current: 110357208; changing to 110357831. This may result in incorrect timestamps in the output file.
[mp4 @ 03c46140] Non-monotonous DTS in output stream 0:1; previous: 111688189, current: 111687166; changing to 111688190. This may result in incorrect timestamps in the output file.
[mp4 @ 03c46140] Non-monotonous DTS in output stream 0:1; previous: 111775245, current: 111774222; changing to 111775246. This may result in incorrect timestamps in the output file.
[mp4 @ 03c46140] Non-monotonous DTS in output stream 0:1; previous: 111950344, current: 111949321; changing to 111950345. This may result in incorrect timestamps in the output file.
[mp4 @ 03c46140] Non-monotonous DTS in output stream 0:1; previous: 111989256, current: 111988506; changing to 111989257. This may result in incorrect timestamps in the output file.
[mp4 @ 03c46140] Non-monotonous DTS in output stream 0:1; previous: 112049485, current: 112048451; changing to 112049486. This may result in incorrect timestamps in the output file.
[mp4 @ 03c46140] Non-monotonous DTS in output stream 0:1; previous: 112049486, current: 112049476; changing to 112049487. This may result in incorrect timestamps in the output file.
[mp4 @ 03c46140] Non-monotonous DTS in output stream 0:1; previous: 112238813, current: 112238362; changing to 112238814. This may result in incorrect timestamps in the output file.
frame=38578 fps=15430 q=-1.0 size=  240640kB time=00:42:52.15 bitrate= 766.4kbits/s speed=1.03e+03x    [mp4 @ 03c46140] Non-monotonous DTS in output stream 0:1; previous: 119102116, current: 119100772; changing to 119102117. This may result in incorrect timestamps in the output file.
[mp4 @ 03c46140] Non-monotonous DTS in output stream 0:1; previous: 119102117, current: 119101797; changing to 119102118. This may result in incorrect timestamps in the output file.
[mp4 @ 03c46140] Non-monotonous DTS in output stream 0:1; previous: 119119204, current: 119117876; changing to 119119205. This may result in incorrect timestamps in the output file.
[mp4 @ 03c46140] Non-monotonous DTS in output stream 0:1; previous: 119119205, current: 119118901; changing to 119119206. This may result in incorrect timestamps in the output file.
[mp4 @ 03c46140] Non-monotonous DTS in output stream 0:1; previous: 132333063, current: 132331796; changing to 132333064. This may result in incorrect timestamps in the output file.
[mp4 @ 03c46140] Non-monotonous DTS in output stream 0:1; previous: 132333064, current: 132332820; changing to 132333065. This may result in incorrect timestamps in the output file.
[mp4 @ 03c46140] Non-monotonous DTS in output stream 0:1; previous: 132350228, current: 132349694; changing to 132350229. This may result in incorrect timestamps in the output file.
[mp4 @ 03c46140] Non-monotonous DTS in output stream 0:1; previous: 132452647, current: 132451584; changing to 132452648. This may result in incorrect timestamps in the output file.
[mp4 @ 03c46140] Non-monotonous DTS in output stream 0:1; previous: 132452648, current: 132452609; changing to 132452649. This may result in incorrect timestamps in the output file.
frame=48734 fps=16244 q=-1.0 size=  292864kB time=00:54:09.37 bitrate= 738.3kbits/s speed=1.08e+03x    [mp4 @ 03c46140] Non-monotonous DTS in output stream 0:1; previous: 145570523, current: 145568458; changing to 145570524. This may result in incorrect timestamps in the output file.
[mp4 @ 03c46140] Non-monotonous DTS in output stream 0:1; previous: 145570524, current: 145569482; changing to 145570525. This may result in incorrect timestamps in the output file.
[mp4 @ 03c46140] Non-monotonous DTS in output stream 0:1; previous: 145570525, current: 145570506; changing to 145570526. This may result in incorrect timestamps in the output file.
[mp4 @ 03c46140] Non-monotonous DTS in output stream 0:1; previous: 145692245, current: 145691152; changing to 145692246. This may result in incorrect timestamps in the output file.
[mp4 @ 03c46140] Non-monotonous DTS in output stream 0:1; previous: 145692246, current: 145692176; changing to 145692247. This may result in incorrect timestamps in the output file.
[mp4 @ 03c46140] Non-monotonous DTS in output stream 0:1; previous: 158799963, current: 158798458; changing to 158799964. This may result in incorrect timestamps in the output file.
[mp4 @ 03c46140] Non-monotonous DTS in output stream 0:1; previous: 158799964, current: 158799482; changing to 158799965. This may result in incorrect timestamps in the output file.
[mp4 @ 03c46140] Non-monotonous DTS in output stream 0:1; previous: 158920198, current: 158919458; changing to 158920199. This may result in incorrect timestamps in the output file.
[mp4 @ 03c46140] Non-monotonous DTS in output stream 0:1; previous: 172030636, current: 172028458; changing to 172030637. This may result in incorrect timestamps in the output file.
[mp4 @ 03c46140] Non-monotonous DTS in output stream 0:1; previous: 172030637, current: 172029482; changing to 172030638. This may result in incorrect timestamps in the output file.
[mp4 @ 03c46140] Non-monotonous DTS in output stream 0:1; previous: 172030638, current: 172030506; changing to 172030639. This may result in incorrect timestamps in the output file.
[mp4 @ 03c46140] Non-monotonous DTS in output stream 0:1; previous: 172152363, current: 172151387; changing to 172152364. This may result in incorrect timestamps in the output file.
frame=60352 fps=17242 q=-1.0 size=  345088kB time=01:07:03.90 bitrate= 702.5kbits/s speed=1.15e+03x    [mp4 @ 03c46140] Non-monotonous DTS in output stream 0:1; previous: 185260082, current: 185258458; changing to 185260083. This may result in incorrect timestamps in the output file.
[mp4 @ 03c46140] Non-monotonous DTS in output stream 0:1; previous: 185260083, current: 185259482; changing to 185260084. This may result in incorrect timestamps in the output file.
[mp4 @ 03c46140] Non-monotonous DTS in output stream 0:1; previous: 185381264, current: 185380598; changing to 185381265. This may result in incorrect timestamps in the output file.
[mp4 @ 03c46140] Non-monotonous DTS in output stream 0:1; previous: 191081995, current: 191080972; changing to 191081996. This may result in incorrect timestamps in the output file.
[mp4 @ 03c46140] Non-monotonous DTS in output stream 0:1; previous: 191101452, current: 191101407; changing to 191101453. This may result in incorrect timestamps in the output file.
[mp4 @ 03c46140] Non-monotonous DTS in output stream 0:1; previous: 198504143, current: 198502638; changing to 198504144. This may result in incorrect timestamps in the output file.
[mp4 @ 03c46140] Non-monotonous DTS in output stream 0:1; previous: 198504144, current: 198503662; changing to 198504145. This may result in incorrect timestamps in the output file.
[mp4 @ 03c46140] Non-monotonous DTS in output stream 0:1; previous: 198625518, current: 198623443; changing to 198625519. This may result in incorrect timestamps in the output file.
[mp4 @ 03c46140] Non-monotonous DTS in output stream 0:1; previous: 198625519, current: 198624467; changing to 198625520. This may result in incorrect timestamps in the output file.
[mp4 @ 03c46140] Non-monotonous DTS in output stream 0:1; previous: 198625520, current: 198625492; changing to 198625521. This may result in incorrect timestamps in the output file.
frame=70167 fps=17541 q=-1.0 size=  408832kB time=01:17:58.62 bitrate= 715.8kbits/s speed=1.17e+03x    [mp4 @ 03c46140] Non-monotonous DTS in output stream 0:1; previous: 209527037, current: 209525386; changing to 209527038. This may result in incorrect timestamps in the output file.
[mp4 @ 03c46140] Non-monotonous DTS in output stream 0:1; previous: 209527038, current: 209526410; changing to 209527039. This may result in incorrect timestamps in the output file.
[mp4 @ 03c46140] Non-monotonous DTS in output stream 0:1; previous: 211735369, current: 211733662; changing to 211735370. This may result in incorrect timestamps in the output file.
[mp4 @ 03c46140] Non-monotonous DTS in output stream 0:1; previous: 211735370, current: 211734685; changing to 211735371. This may result in incorrect timestamps in the output file.
[mp4 @ 03c46140] Non-monotonous DTS in output stream 0:1; previous: 211857522, current: 211856547; changing to 211857523. This may result in incorrect timestamps in the output file.
[mp4 @ 03c46140] Non-monotonous DTS in output stream 0:1; previous: 222510400, current: 222508630; changing to 222510401. This may result in incorrect timestamps in the output file.
[mp4 @ 03c46140] Non-monotonous DTS in output stream 0:1; previous: 222510401, current: 222509654; changing to 222510402. This may result in incorrect timestamps in the output file.
[mp4 @ 03c46140] Non-monotonous DTS in output stream 0:1; previous: 224964933, current: 224962638; changing to 224964934. This may result in incorrect timestamps in the output file.
[mp4 @ 03c46140] Non-monotonous DTS in output stream 0:1; previous: 224964934, current: 224963662; changing to 224964935. This may result in incorrect timestamps in the output file.
[mp4 @ 03c46140] Non-monotonous DTS in output stream 0:1; previous: 224964935, current: 224964686; changing to 224964936. This may result in incorrect timestamps in the output file.
[mp4 @ 03c46140] Non-monotonous DTS in output stream 0:1; previous: 225085518, current: 225084425; changing to 225085519. This may result in incorrect timestamps in the output file.
[mp4 @ 03c46140] Non-monotonous DTS in output stream 0:1; previous: 225085519, current: 225085449; changing to 225085520. This may result in incorrect timestamps in the output file.
frame=79804 fps=17733 q=-1.0 size=  482304kB time=01:28:41.05 bitrate= 742.5kbits/s speed=1.18e+03x    [mp4 @ 03c46140] Non-monotonous DTS in output stream 0:1; previous: 238195169, current: 238193662; changing to 238195170. This may result in incorrect timestamps in the output file.
[mp4 @ 03c46140] Non-monotonous DTS in output stream 0:1; previous: 238195170, current: 238194686; changing to 238195171. This may result in incorrect timestamps in the output file.
[mp4 @ 03c46140] Non-monotonous DTS in output stream 0:1; previous: 238316425, current: 238315802; changing to 238316426. This may result in incorrect timestamps in the output file.
[mp4 @ 03c46140] Non-monotonous DTS in output stream 0:1; previous: 251425006, current: 251423662; changing to 251425007. This may result in incorrect timestamps in the output file.
[mp4 @ 03c46140] Non-monotonous DTS in output stream 0:1; previous: 251425007, current: 251424686; changing to 251425008. This may result in incorrect timestamps in the output file.
[mp4 @ 03c46140] Non-monotonous DTS in output stream 0:1; previous: 251546425, current: 251544553; changing to 251546426. This may result in incorrect timestamps in the output file.
[mp4 @ 03c46140] Non-monotonous DTS in output stream 0:1; previous: 251546426, current: 251545577; changing to 251546427. This may result in incorrect timestamps in the output file.
[mp4 @ 03c46140] Non-monotonous DTS in output stream 0:1; previous: 264654155, current: 264652638; changing to 264654156. This may result in incorrect timestamps in the output file.
[mp4 @ 03c46140] Non-monotonous DTS in output stream 0:1; previous: 264654156, current: 264653662; changing to 264654157. This may result in incorrect timestamps in the output file.
[mp4 @ 03c46140] Non-monotonous DTS in output stream 0:1; previous: 264775400, current: 264774851; changing to 264775401. This may result in incorrect timestamps in the output file.
frame=90135 fps=18026 q=-1.0 size=  540672kB time=01:40:09.78 bitrate= 737.0kbits/s speed=1.2e+03x    [mp4 @ 03c46140] Non-monotonous DTS in output stream 0:1; previous: 277885810, current: 277884686; changing to 277885811. This may result in incorrect timestamps in the output file.
[mp4 @ 03c46140] Non-monotonous DTS in output stream 0:1; previous: 277885811, current: 277885710; changing to 277885812. This may result in incorrect timestamps in the output file.
[mp4 @ 03c46140] Non-monotonous DTS in output stream 0:1; previous: 278197839, current: 278195908; changing to 278197840. This may result in incorrect timestamps in the output file.
[mp4 @ 03c46140] Non-monotonous DTS in output stream 0:1; previous: 278197840, current: 278196933; changing to 278197841. This may result in incorrect timestamps in the output file.
[mp4 @ 03c46140] Non-monotonous DTS in output stream 0:1; previous: 291115163, current: 291113662; changing to 291115164. This may result in incorrect timestamps in the output file.
[mp4 @ 03c46140] Non-monotonous DTS in output stream 0:1; previous: 291115164, current: 291114686; changing to 291115165. This may result in incorrect timestamps in the output file.
[mp4 @ 03c46140] Non-monotonous DTS in output stream 0:1; previous: 291425820, current: 291425242; changing to 291425821. This may result in incorrect timestamps in the output file.
frame=101704 fps=18491 q=-1.0 size=  612352kB time=01:53:01.05 bitrate= 739.8kbits/s speed=1.23e+03x    [mp4 @ 03c46140] Non-monotonous DTS in output stream 0:1; previous: 304344815, current: 304342638; changing to 304344816. This may result in incorrect timestamps in the output file.
[mp4 @ 03c46140] Non-monotonous DTS in output stream 0:1; previous: 304344816, current: 304343662; changing to 304344817. This may result in incorrect timestamps in the output file.
[mp4 @ 03c46140] Non-monotonous DTS in output stream 0:1; previous: 304344817, current: 304344686; changing to 304344818. This may result in incorrect timestamps in the output file.
[mp4 @ 03c46140] Non-monotonous DTS in output stream 0:1; previous: 304633253, current: 304633102; changing to 304633254. This may result in incorrect timestamps in the output file.
[mp4 @ 03c46140] Non-monotonous DTS in output stream 0:1; previous: 304653582, current: 304653076; changing to 304653583. This may result in incorrect timestamps in the output file.
[mp4 @ 03c46140] Non-monotonous DTS in output stream 0:1; previous: 308438816, current: 308438355; changing to 308438817. This may result in incorrect timestamps in the output file.
[mp4 @ 03c46140] Non-monotonous DTS in output stream 0:1; previous: 309826483, current: 309823155; changing to 309826484. This may result in incorrect timestamps in the output file.
[mp4 @ 03c46140] Non-monotonous DTS in output stream 0:1; previous: 309826484, current: 309824180; changing to 309826485. This may result in incorrect timestamps in the output file.
[mp4 @ 03c46140] Non-monotonous DTS in output stream 0:1; previous: 309826485, current: 309825203; changing to 309826486. This may result in incorrect timestamps in the output file.
[mp4 @ 03c46140] Non-monotonous DTS in output stream 0:1; previous: 309826486, current: 309826227; changing to 309826487. This may result in incorrect timestamps in the output file.
[mp4 @ 03c46140] Non-monotonous DTS in output stream 0:1; previous: 315387571, current: 315385096; changing to 315387572. This may result in incorrect timestamps in the output file.
[mp4 @ 03c46140] Non-monotonous DTS in output stream 0:1; previous: 315387572, current: 315386121; changing to 315387573. This may result in incorrect timestamps in the output file.
[mp4 @ 03c46140] Non-monotonous DTS in output stream 0:1; previous: 315387573, current: 315387145; changing to 315387574. This may result in incorrect timestamps in the output file.
[mp4 @ 03c46140] Non-monotonous DTS in output stream 0:1; previous: 317581332, current: 317579239; changing to 317581333. This may result in incorrect timestamps in the output file.
[mp4 @ 03c46140] Non-monotonous DTS in output stream 0:1; previous: 317581333, current: 317580263; changing to 317581334. This may result in incorrect timestamps in the output file.
[mp4 @ 03c46140] Non-monotonous DTS in output stream 0:1; previous: 317581334, current: 317581287; changing to 317581335. This may result in incorrect timestamps in the output file.
[mp4 @ 03c46140] Non-monotonous DTS in output stream 0:1; previous: 317871079, current: 317870810; changing to 317871080. This may result in incorrect timestamps in the output file.
[mp4 @ 03c46140] Non-monotonous DTS in output stream 0:1; previous: 330812204, current: 330810262; changing to 330812205. This may result in incorrect timestamps in the output file.
[mp4 @ 03c46140] Non-monotonous DTS in output stream 0:1; previous: 330812205, current: 330811286; changing to 330812206. This may result in incorrect timestamps in the output file.
[mp4 @ 03c46140] Non-monotonous DTS in output stream 0:1; previous: 331122229, current: 331121372; changing to 331122230. This may result in incorrect timestamps in the output file.
frame=112617 fps=18768 q=-1.0 size=  682240kB time=02:05:08.79 bitrate= 744.3kbits/s speed=1.25e+03x    [mp4 @ 03c46140] Non-monotonous DTS in output stream 0:1; previous: 344042249, current: 344041286; changing to 344042250. This may result in incorrect timestamps in the output file.
[mp4 @ 03c46140] Non-monotonous DTS in output stream 0:1; previous: 344352466, current: 344351490; changing to 344352467. This may result in incorrect timestamps in the output file.
[mp4 @ 03c46140] Non-monotonous DTS in output stream 0:1; previous: 357271970, current: 357271286; changing to 357271971. This may result in incorrect timestamps in the output file.
[mp4 @ 03c46140] Non-monotonous DTS in output stream 0:1; previous: 357582347, current: 357580947; changing to 357582348. This may result in incorrect timestamps in the output file.
[mp4 @ 03c46140] Non-monotonous DTS in output stream 0:1; previous: 357582348, current: 357581971; changing to 357582349. This may result in incorrect timestamps in the output file.
[mp4 @ 03c46140] Non-monotonous DTS in output stream 0:1; previous: 364416871, current: 364416689; changing to 364416872. This may result in incorrect timestamps in the output file.
frame=124168 fps=19102 q=-1.0 size=  754944kB time=02:17:58.80 bitrate= 747.0kbits/s speed=1.27e+03x    [mp4 @ 03c46140] Non-monotonous DTS in output stream 0:1; previous: 368813574, current: 368813511; changing to 368813575. This may result in incorrect timestamps in the output file.
[mp4 @ 03c46140] Non-monotonous DTS in output stream 0:1; previous: 370502440, current: 370500262; changing to 370502441. This may result in incorrect timestamps in the output file.
[mp4 @ 03c46140] Non-monotonous DTS in output stream 0:1; previous: 370502441, current: 370501286; changing to 370502442. This may result in incorrect timestamps in the output file.
[mp4 @ 03c46140] Non-monotonous DTS in output stream 0:1; previous: 370502442, current: 370502310; changing to 370502443. This may result in incorrect timestamps in the output file.
[mp4 @ 03c46140] Non-monotonous DTS in output stream 0:1; previous: 370812421, current: 370811637; changing to 370812422. This may result in incorrect timestamps in the output file.
[mp4 @ 03c46140] Non-monotonous DTS in output stream 0:1; previous: 383731724, current: 383730262; changing to 383731725. This may result in incorrect timestamps in the output file.
[mp4 @ 03c46140] Non-monotonous DTS in output stream 0:1; previous: 383731725, current: 383731286; changing to 383731726. This may result in incorrect timestamps in the output file.
[mp4 @ 03c46140] Non-monotonous DTS in output stream 0:1; previous: 384040299, current: 384038075; changing to 384040300. This may result in incorrect timestamps in the output file.
[mp4 @ 03c46140] Non-monotonous DTS in output stream 0:1; previous: 384040300, current: 384039099; changing to 384040301. This may result in incorrect timestamps in the output file.
[mp4 @ 03c46140] Non-monotonous DTS in output stream 0:1; previous: 384040301, current: 384040123; changing to 384040302. This may result in incorrect timestamps in the output file.
frame=133197 fps=19027 q=-1.0 size=  826880kB time=02:28:00.73 bitrate= 762.8kbits/s speed=1.27e+03x    [mp4 @ 03c46140] Non-monotonous DTS in output stream 0:1; previous: 396961587, current: 396960262; changing to 396961588. This may result in incorrect timestamps in the output file.
[mp4 @ 03c46140] Non-monotonous DTS in output stream 0:1; previous: 396961588, current: 396961286; changing to 396961589. This may result in incorrect timestamps in the output file.
frame=135451 fps=18059 q=-1.0 size=  845568kB time=02:30:31.00 bitrate= 767.0kbits/s speed=1.2e+03x    [mp4 @ 03c46140] Non-monotonous DTS in output stream 0:1; previous: 410191254, current: 410189239; changing to 410191255. This may result in incorrect timestamps in the output file.
[mp4 @ 03c46140] Non-monotonous DTS in output stream 0:1; previous: 410191255, current: 410190263; changing to 410191256. This may result in incorrect timestamps in the output file.
[mp4 @ 03c46140] Non-monotonous DTS in output stream 0:1; previous: 410545826, current: 410545116; changing to 410545827. This may result in incorrect timestamps in the output file.
[mp4 @ 03c46140] Non-monotonous DTS in output stream 0:1; previous: 413695657, current: 413692502; changing to 413695658. This may result in incorrect timestamps in the output file.
[mp4 @ 03c46140] Non-monotonous DTS in output stream 0:1; previous: 413695658, current: 413693526; changing to 413695659. This may result in incorrect timestamps in the output file.
[mp4 @ 03c46140] Non-monotonous DTS in output stream 0:1; previous: 413695659, current: 413694551; changing to 413695660. This may result in incorrect timestamps in the output file.
[mp4 @ 03c46140] Non-monotonous DTS in output stream 0:1; previous: 413695660, current: 413695575; changing to 413695661. This may result in incorrect timestamps in the output file.
frame=141197 fps=17649 q=-1.0 size=  893696kB time=02:36:54.36 bitrate= 777.7kbits/s speed=1.18e+03x    [mp4 @ 03c46140] Non-monotonous DTS in output stream 0:1; previous: 423434211, current: 423432440; changing to 423434212. This may result in incorrect timestamps in the output file.
[mp4 @ 03c46140] Non-monotonous DTS in output stream 0:1; previous: 423434212, current: 423433464; changing to 423434213. This may result in incorrect timestamps in the output file.
[mp4 @ 03c46140] Non-monotonous DTS in output stream 0:1; previous: 423785132, current: 423784348; changing to 423785133. This may result in incorrect timestamps in the output file.
[mp4 @ 03c46140] Non-monotonous DTS in output stream 0:1; previous: 436665670, current: 436664488; changing to 436665671. This may result in incorrect timestamps in the output file.
[mp4 @ 03c46140] Non-monotonous DTS in output stream 0:1; previous: 436665671, current: 436665512; changing to 436665672. This may result in incorrect timestamps in the output file.
[mp4 @ 03c46140] Non-monotonous DTS in output stream 0:1; previous: 437018087, current: 437017862; changing to 437018088. This may result in incorrect timestamps in the output file.
[mp4 @ 03c46140] Non-monotonous DTS in output stream 0:1; previous: 438330384, current: 438330276; changing to 438330385. This may result in incorrect timestamps in the output file.
frame=152713 fps=17965 q=-1.0 size=  974080kB time=02:49:42.10 bitrate= 783.7kbits/s speed=1.2e+03x    [mp4 @ 03c46140] Non-monotonous DTS in output stream 0:1; previous: 449894353, current: 449892440; changing to 449894354. This may result in incorrect timestamps in the output file.
[mp4 @ 03c46140] Non-monotonous DTS in output stream 0:1; previous: 449894354, current: 449893464; changing to 449894355. This may result in incorrect timestamps in the output file.
[mp4 @ 03c46140] Non-monotonous DTS in output stream 0:1; previous: 450246073, current: 450244980; changing to 450246074. This may result in incorrect timestamps in the output file.
[mp4 @ 03c46140] Non-monotonous DTS in output stream 0:1; previous: 450246074, current: 450246004; changing to 450246075. This may result in incorrect timestamps in the output file.
[mp4 @ 03c46140] Non-monotonous DTS in output stream 0:1; previous: 457235854, current: 457232800; changing to 457235855. This may result in incorrect timestamps in the output file.
[mp4 @ 03c46140] Non-monotonous DTS in output stream 0:1; previous: 457235855, current: 457233824; changing to 457235856. This may result in incorrect timestamps in the output file.
[mp4 @ 03c46140] Non-monotonous DTS in output stream 0:1; previous: 457235856, current: 457234848; changing to 457235857. This may result in incorrect timestamps in the output file.
[mp4 @ 03c46140] Non-monotonous DTS in output stream 0:1; previous: 463124499, current: 463123464; changing to 463124500. This may result in incorrect timestamps in the output file.
[mp4 @ 03c46140] Non-monotonous DTS in output stream 0:1; previous: 463124500, current: 463124488; changing to 463124501. This may result in incorrect timestamps in the output file.
[mp4 @ 03c46140] Non-monotonous DTS in output stream 0:1; previous: 463480136, current: 463479821; changing to 463480137. This may result in incorrect timestamps in the output file.
[mp4 @ 03c46140] Non-monotonous DTS in output stream 0:1; previous: 472244419, current: 472243561; changing to 472244420. This may result in incorrect timestamps in the output file.
[mp4 @ 03c46140] Non-monotonous DTS in output stream 0:1; previous: 476354848, current: 476353464; changing to 476354849. This may result in incorrect timestamps in the output file.
[mp4 @ 03c46140] Non-monotonous DTS in output stream 0:1; previous: 476354849, current: 476354488; changing to 476354850. This may result in incorrect timestamps in the output file.
[mp4 @ 03c46140] Non-monotonous DTS in output stream 0:1; previous: 476707885, current: 476706572; changing to 476707886. This may result in incorrect timestamps in the output file.
[mp4 @ 03c46140] Non-monotonous DTS in output stream 0:1; previous: 476707886, current: 476707597; changing to 476707887. This may result in incorrect timestamps in the output file.
frame=163363 fps=18150 q=-1.0 size= 1057280kB time=03:01:32.10 bitrate= 795.2kbits/s speed=1.21e+03x    [mp4 @ 03c46140] Non-monotonous DTS in output stream 0:1; previous: 489583842, current: 489582440; changing to 489583843. This may result in incorrect timestamps in the output file.
[mp4 @ 03c46140] Non-monotonous DTS in output stream 0:1; previous: 489583843, current: 489583464; changing to 489583844. This may result in incorrect timestamps in the output file.
[mp4 @ 03c46140] Non-monotonous DTS in output stream 0:1; previous: 489936435, current: 489936239; changing to 489936436. This may result in incorrect timestamps in the output file.
[mp4 @ 03c46140] Non-monotonous DTS in output stream 0:1; previous: 502820996, current: 502819447; changing to 502820997. This may result in incorrect timestamps in the output file.
[mp4 @ 03c46140] Non-monotonous DTS in output stream 0:1; previous: 502820997, current: 502820471; changing to 502820998. This may result in incorrect timestamps in the output file.
[mp4 @ 03c46140] Non-monotonous DTS in output stream 0:1; previous: 503173079, current: 503171913; changing to 503173080. This may result in incorrect timestamps in the output file.
[mp4 @ 03c46140] Non-monotonous DTS in output stream 0:1; previous: 503173080, current: 503172937; changing to 503173081. This may result in incorrect timestamps in the output file.
frame=172403 fps=18124 q=-1.0 Lsize= 1126261kB time=03:11:34.90 bitrate= 802.6kbits/s speed=1.21e+03x    
video:1055002kB audio:64007kB subtitle:0kB other streams:0kB global headers:0kB muxing overhead: 0.648129%
